<svg xmlns="http://www.w3.org/2000/svg" viewBox="0 0 1000 700" role="img" aria-labelledby="title desc">
  <title id="title">Manel sample waste and drainage plan</title><desc id="desc">Illustrative drainage routing and floor falls for a 2.5 metre by 2 metre bathroom.</desc>
  <defs><marker id="arrow" markerWidth="10" markerHeight="10" refX="8" refY="3" orient="auto"><path d="M0 0L9 3 0 6z" fill="#c9a24b"/></marker></defs><rect width="1000" height="700" fill="#f7f3eb"/><g fill="none" stroke="#2b322a" stroke-width="6"><rect x="180" y="115" width="625" height="500"/><rect x="575" y="135" width="210" height="185"/><ellipse cx="675" cy="468" rx="58" ry="80"/><rect x="235" y="165" width="220" height="90" rx="12"/></g>
  <g fill="none" stroke="#5c6b56" stroke-width="13" stroke-linecap="round"><path d="M345 255v220h330"/><path d="M675 548v-73"/><path d="M680 320v155"/></g><g fill="#5c6b56"><circle cx="510" cy="475" r="22"/><rect x="660" y="460" width="30" height="30"/></g><g stroke="#c9a24b" stroke-width="4" marker-end="url(#arrow)"><path d="M230 350l245 100"/><path d="M760 360l-215 90"/><path d="M730 570l-175-80"/></g>
  <g font-family="Arial,sans-serif" fill="#5c6b56"><text x="180" y="65" font-size="26" font-weight="700">MANEL · WASTE &amp; DRAINAGE · SAMPLE</text><text x="520" y="665" font-size="20">Illustrative only · Not for construction</text><text x="460" y="520" font-size="18">FLOOR GULLY</text><text x="695" y="495" font-size="18">110 mm SOIL</text></g>
</svg>
